<svg width="800" height="600" xmlns="http://www.w3.org/2000/svg">

 <g>
  <title>Layer 1</title>
  <g>
   <!--! Font Awesome Free 6.7.2 by @fontawesome - https://fontawesome.com License - https://fontawesome.com/license/free (Icons: CC BY 4.0, Fonts: SIL OFL 1.1, Code: MIT License) Copyright 2024 Fonticons, Inc. -->
   <path fill="#ffffff" d="m560.01251,251.96249c0,45.9 -14.9,88.3 -40,122.7l126.6,126.7c12.5,12.5 12.5,32.8 0,45.3s-32.8,12.5 -45.3,0l-126.6,-126.7c-34.4,25.2 -76.8,40 -122.7,40c-114.9,0 -208,-93.1 -208,-208s93.1,-208 208,-208s208,93.1 208,208zm-208,144a144,144 0 1 0 0,-288a144,144 0 1 0 0,288z"/>
  </g>
 </g>
</svg>